<?xml version="1.0" encoding="UTF-8" standalone="no"?>
<!-- Created with Inkscape (http://www.inkscape.org/) -->

<svg
   xmlns:dc="http://purl.org/dc/elements/1.1/"
   xmlns:cc="http://creativecommons.org/ns#"
   xmlns:rdf="http://www.w3.org/1999/02/22-rdf-syntax-ns#"
   xmlns:svg="http://www.w3.org/2000/svg"
   xmlns="http://www.w3.org/2000/svg"
   xmlns:sodipodi="http://sodipodi.sourceforge.net/DTD/sodipodi-0.dtd"
   xmlns:inkscape="http://www.inkscape.org/namespaces/inkscape"
   width="200"
   height="65"
   viewBox="0 0 52.916667 17.197917"
   version="1.1"
   id="svg8"
   inkscape:version="0.92.4 (5da689c313, 2019-01-14)"
   sodipodi:docname="Logo.svg"
   inkscape:export-filename="C:\Users\david\Documents\MEGA\Projects\Web\Amathings\content\images\Logo.png"
   inkscape:export-xdpi="96"
   inkscape:export-ydpi="96">
  <defs
     id="defs2" />
  <sodipodi:namedview
     id="base"
     pagecolor="#ffffff"
     bordercolor="#666666"
     borderopacity="1.0"
     inkscape:pageopacity="0.0"
     inkscape:pageshadow="2"
     inkscape:zoom="3.959798"
     inkscape:cx="79.831398"
     inkscape:cy="37.925788"
     inkscape:document-units="px"
     inkscape:current-layer="layer1"
     showgrid="false"
     units="px"
     inkscape:window-width="2400"
     inkscape:window-height="1271"
     inkscape:window-x="2391"
     inkscape:window-y="-9"
     inkscape:window-maximized="1" />
  <metadata
     id="metadata5">
    <rdf:RDF>
      <cc:Work
         rdf:about="">
        <dc:format>image/svg+xml</dc:format>
        <dc:type
           rdf:resource="http://purl.org/dc/dcmitype/StillImage" />
        <dc:title></dc:title>
      </cc:Work>
    </rdf:RDF>
  </metadata>
  <g
     inkscape:label="Capa 1"
     inkscape:groupmode="layer"
     id="layer1"
     transform="translate(0,-279.80207)">
    <g
       aria-label="A-Math-ings"
       style="font-style:normal;font-variant:normal;font-weight:normal;font-stretch:normal;font-size:4.23333311px;line-height:1.25;font-family:'Photograph Signature';-inkscape-font-specification:'Photograph Signature, Normal';font-variant-ligatures:normal;font-variant-caps:normal;font-variant-numeric:normal;font-feature-settings:normal;text-align:start;letter-spacing:0px;word-spacing:0px;writing-mode:lr-tb;text-anchor:start;fill:#ff5555;fill-opacity:1;stroke:#000000;stroke-width:0.05291667;stroke-miterlimit:4;stroke-dasharray:none;stroke-opacity:1"
       id="text814"
       inkscape:export-xdpi="276.89999"
       inkscape:export-ydpi="276.89999"
       transform="matrix(2.5008277,0,0,2.5008277,-1.1189925,-433.49268)">
      <path
         d="m 1.0421937,291.27057 c 0.016933,-0.0169 0.059267,0 0.093133,0.0381 0.0254,0.0296 0.0381,0.0635 0.033867,0.0847 0.4317999,-0.35983 1.1514666,-1.07103 1.8965332,-1.8288 -1.0837333,0.0508 -2.1589999,0.0423 -2.41299988,-0.18203 -0.10583333,-0.0931 -0.13123333,-0.19897 -0.0846667,-0.30903 0.0423333,-0.11007 0.15663333,-0.23284 0.31749999,-0.36407 0.16509999,-0.13123 0.37676669,-0.2667 0.61806669,-0.38947 0.9355666,-0.48683 2.3283332,-0.8509 3.1072665,-0.33866 0.6561666,-0.67734 1.1472332,-1.1811 1.2022666,-1.18534 0.1735666,-0.0169 0.2413,0.0974 0.1354666,0.48684 -0.080433,0.28363 -0.2539999,0.75776 -0.5714999,1.52823 -0.059267,0.14817 -0.1227667,0.2921 -0.1862667,0.42757 0.1820333,-0.0169 0.2878667,-0.0296 0.2878667,-0.0296 0.029633,-0.004 0.071967,0.0254 0.097367,0.0677 0.029633,0.0381 0.0254,0.0762 0,0.0804 -0.00423,0 -0.1608666,0.0169 -0.4191,0.0423 -0.033867,0.21167 -0.097367,0.42334 -0.1777999,0.62654 -0.1693334,0.43603 -0.4106334,0.83396 -0.6011333,1.10066 -0.1397,0.19474 -0.254,0.3175 -0.2963334,0.32597 -0.067733,0.0169 -0.1143,-0.0212 -0.1397,-0.11007 -0.016933,-0.0677 0.097367,-0.27516 0.2794,-0.60113 0.1862667,-0.3302 0.4402667,-0.78317 0.6942667,-1.31657 -0.4191,0.0381 -0.9906,0.0889 -1.5790333,0.12277 -1.0921999,1.11337 -2.1716999,2.1717 -2.41723323,2.2352 -0.0804333,0.0212 -0.13969999,-0.0169 -0.16509999,-0.11853 -0.0296333,-0.1143 0.28363332,-0.3937 0.28786672,-0.3937 z m 2.1716998,-1.85844 c 0.3979334,-0.40216 0.7958667,-0.8128 1.1557,-1.18533 l 0.1693333,-0.17357 c -0.7366,-0.41486 -2.0319999,-0.055 -2.9209998,0.4064 -0.2413,0.12277 -0.4487333,0.25824 -0.6096,0.38524 -0.15663333,0.127 -0.26669999,0.24553 -0.30903332,0.34713 -0.0211667,0.055 -0.0254,0.0889 -0.0127,0.1016 0.23706665,0.20743 1.40546662,0.18627 2.52729982,0.11853 z m 1.2784666,-1.04986 c -0.3132666,0.32173 -0.6561666,0.67733 -1.0032999,1.0287 0.5842,-0.0381 1.1302999,-0.0931 1.5028333,-0.13124 l 0.042333,-0.0889 c 0.016933,-0.18203 0.0127,-0.35983 -0.029633,-0.52493 -0.0508,-0.1905 -0.1481667,-0.3556 -0.3132667,-0.49107 z m 1.4139333,-1.41817 c -0.033867,0.004 -0.508,0.48683 -1.1514666,1.14723 0.2032,0.17357 0.3217333,0.38524 0.381,0.61384 0.016933,0.0508 0.0254,0.10583 0.033867,0.16086 0.0254,-0.055 0.0508,-0.1143 0.071967,-0.17356 0.3175,-0.76624 0.4910666,-1.24037 0.5672666,-1.51977 0.0508,-0.16933 0.1227667,-0.23283 0.097367,-0.2286 z m -1.1768666,3.23427 c -0.1058333,0.2032 -0.2074333,0.38523 -0.2963333,0.5461 0.1016,-0.16087 0.2032,-0.34714 0.2963333,-0.5461 z"
         style="font-style:normal;font-variant:normal;font-weight:normal;font-stretch:normal;font-size:4.23333311px;font-family:'Photograph Signature';-inkscape-font-specification:'Photograph Signature, Normal';font-variant-ligatures:normal;font-variant-caps:normal;font-variant-numeric:normal;font-feature-settings:normal;text-align:start;writing-mode:lr-tb;text-anchor:start;fill:#ff5555;stroke:#000000;stroke-width:0.05291667;stroke-miterlimit:4;stroke-dasharray:none;stroke-opacity:1"
         id="path814"
         inkscape:connector-curvature="0" />
      <path
         d="m 6.0683505,289.28513 c -0.029633,0 -0.0762,-0.0339 -0.097367,-0.072 -0.0254,-0.0423 -0.021167,-0.0762 0.00847,-0.0762 h 1.1895666 c 0.029633,0 0.071967,0.0339 0.097367,0.0762 0.0254,0.0381 0.021167,0.072 -0.0127,0.072 z"
         style="font-style:normal;font-variant:normal;font-weight:normal;font-stretch:normal;font-size:4.23333311px;font-family:'Photograph Signature';-inkscape-font-specification:'Photograph Signature, Normal';font-variant-ligatures:normal;font-variant-caps:normal;font-variant-numeric:normal;font-feature-settings:normal;text-align:start;writing-mode:lr-tb;text-anchor:start;fill:#ff5555;stroke:#000000;stroke-width:0.05291667;stroke-miterlimit:4;stroke-dasharray:none;stroke-opacity:1"
         id="path816"
         inkscape:connector-curvature="0" />
      <path
         d="m 8.0511381,288.93377 c 0.021167,0.0423 0.0127,0.072 -0.016933,0.0677 -0.033867,-0.004 -0.0762,-0.0381 -0.097367,-0.0762 -0.042333,-0.0804 -0.055033,-0.17357 -0.046567,-0.2667 0.021167,-0.17357 0.1227667,-0.37677 0.2667,-0.5588 0.1397,-0.18627 0.3259667,-0.35137 0.5207,-0.45297 0.1481666,-0.0804 0.3005666,-0.12276 0.4445,-0.10583 0.046567,0.004 0.084667,0.0212 0.1227666,0.0508 0.127,0.1016 0.1608667,0.3048 0.1227667,0.56303 -0.033867,0.2286 -0.1143,0.51647 -0.2243667,0.82127 -0.0381,0.1143 -0.084667,0.23283 -0.1312333,0.34713 0.4191,-0.508 0.8509,-0.9779 1.1049006,-1.13876 0.1778,-0.1143 0.300566,-0.0762 0.385233,0.055 0.110067,0.1778 0.0508,0.5842 -0.0042,0.95673 -0.0381,0.24977 -0.07197,0.4826 -0.0762,0.56304 0.05927,-0.0339 0.1651,-0.1397 0.300566,-0.2921 0.173567,-0.19474 0.389467,-0.46567 0.6223,-0.7747 0.148167,-0.19474 0.300567,-0.40217 0.448734,-0.61807 0.2413,-0.635 0.537633,-1.25307 0.791633,-1.7145 0.270933,-0.4953 0.508,-0.81703 0.5969,-0.82127 0.0889,-0.004 0.1397,0.0508 0.143933,0.16934 0.0127,0.33443 -0.6858,1.47743 -1.397,2.4892 l -0.03387,0.0931 c -0.478367,1.2954 -0.7239,2.65007 0.0254,2.92523 0.0381,0.0127 0.0762,0.055 0.0889,0.0931 0.0127,0.0381 -0.0042,0.0593 -0.04233,0.0466 -0.829733,-0.3048 -0.7493,-1.47743 -0.372533,-2.6924 -0.04233,0.0508 -0.08043,0.10584 -0.118533,0.15664 -0.237067,0.31326 -0.452967,0.5842 -0.626534,0.77893 -0.1778,0.19897 -0.309033,0.3175 -0.372533,0.32173 -0.02117,0 -0.04657,-0.008 -0.07197,-0.0254 -0.148166,-0.1143 -0.09737,-0.4445 -0.04657,-0.8001 0.05503,-0.35136 0.110066,-0.73236 0.0381,-0.84243 -0.0085,-0.0169 -0.05503,0.004 -0.160867,0.072 -0.338667,0.21166 -0.9906003,0.9779 -1.5070669,1.64676 -0.2455333,0.508 -0.5037667,0.93557 -0.6773333,1.08374 -0.033867,0.0296 -0.059267,0.0423 -0.0762,0.0466 -0.1778,0.0339 -0.1905,-0.0677 -0.071967,-0.27093 0.0508,-0.0889 0.1354667,-0.22013 0.2455333,-0.37677 0.1227667,-0.1778 0.2794,-0.38946 0.4487334,-0.6096 0.1524,-0.31326 0.2963333,-0.65616 0.4106333,-0.98213 0.1058333,-0.30057 0.1862666,-0.58843 0.2201333,-0.8128 0.029633,-0.19473 0.029633,-0.32597 -0.00423,-0.3556 -0.00423,-0.004 -0.0127,-0.004 -0.0254,-0.004 -0.127,-0.0169 -0.2667,0.0212 -0.4064,0.0974 -0.1862667,0.1016 -0.3683,0.26247 -0.508,0.44027 -0.1397,0.1778 -0.2370666,0.37253 -0.254,0.5334 -0.00847,0.072 -0.00423,0.13123 0.021167,0.17357 z m 4.2121669,-1.5494 c 0.4318,-0.6477 0.791633,-1.26577 0.893233,-1.6002 -0.105834,0.13123 -0.262467,0.37676 -0.440267,0.6985 -0.143933,0.26246 -0.300566,0.56726 -0.452966,0.9017 z"
         style="font-style:normal;font-variant:normal;font-weight:normal;font-stretch:normal;font-size:4.23333311px;font-family:'Photograph Signature';-inkscape-font-specification:'Photograph Signature, Normal';font-variant-ligatures:normal;font-variant-caps:normal;font-variant-numeric:normal;font-feature-settings:normal;text-align:start;writing-mode:lr-tb;text-anchor:start;fill:#ff5555;stroke:#000000;stroke-width:0.05291667;stroke-miterlimit:4;stroke-dasharray:none;stroke-opacity:1"
         id="path818"
         inkscape:connector-curvature="0" />
      <path
         d="m 12.720504,289.61957 c 0.01693,0.0423 0.0042,0.0677 -0.02963,0.0593 -0.03387,-0.008 -0.0762,-0.0466 -0.09313,-0.0847 -0.08467,-0.0804 -0.2921,0.0169 -0.3683,0.0804 -0.156633,0.127 -0.245533,0.2794 -0.2921,0.47413 0.148167,-0.0423 0.5334,-0.49106 0.5334,-0.49106 0.01693,-0.0169 0.05503,-0.004 0.09313,0.0339 0.02963,0.0339 0.04657,0.072 0.03387,0.0931 -0.0085,0.0212 -0.05927,0.13123 -0.03387,0.24976 0.01693,0.1016 0.567266,-0.35983 0.575733,-0.36406 0.01693,-0.0169 0.0508,-0.0381 0.08467,-0.004 0.03387,0.0381 0.02963,0.072 0.0127,0.0889 -0.2794,0.24977 -0.4445,0.39794 -0.5588,0.4572 -0.194734,0.1016 -0.3429,0.0423 -0.338667,-0.1651 -0.1524,0.14394 -0.309033,0.27517 -0.402167,0.23284 -0.03387,-0.0127 -0.05927,-0.0381 -0.08467,-0.0635 -0.04233,-0.055 -0.05927,-0.1143 -0.0508,-0.1778 0.0042,-0.0508 0.02117,-0.10584 0.04657,-0.16087 0.05503,-0.11853 0.1524,-0.24977 0.262467,-0.33867 0.1905,-0.15663 0.537633,-0.1651 0.6096,0.0804 z"
         style="font-style:normal;font-variant:normal;font-weight:normal;font-stretch:normal;font-size:4.23333311px;font-family:'Photograph Signature';-inkscape-font-specification:'Photograph Signature, Normal';font-variant-ligatures:normal;font-variant-caps:normal;font-variant-numeric:normal;font-feature-settings:normal;text-align:start;writing-mode:lr-tb;text-anchor:start;fill:#ff5555;stroke:#000000;stroke-width:0.05291667;stroke-miterlimit:4;stroke-dasharray:none;stroke-opacity:1"
         id="path820"
         inkscape:connector-curvature="0" />
      <path
         d="m 14.31528,287.795 c 0.0127,-0.0169 0.05503,-0.008 0.0889,0.0296 0.03387,0.0339 0.0508,0.0804 0.0381,0.0974 0,0.004 -0.309033,0.4318 -0.639233,0.9271 h 1.0795 c 0.02963,0 0.0762,0.0339 0.09737,0.072 0.0254,0.0423 0.02117,0.0762 -0.0085,0.0762 H 13.70568 c -0.0889,0.13546 -0.1778,0.27516 -0.262467,0.41063 v 0.004 c 0,0.0169 -0.0085,0.0254 -0.01693,0.0254 -0.258233,0.4191 -0.397933,0.6604 -0.351367,0.74507 0.0762,0.14393 0.935567,-0.54187 0.935567,-0.5461 0.01693,-0.0127 0.04233,-0.0212 0.0762,0.0169 0.03387,0.0381 0.0085,0.0593 -0.0085,0.072 -0.0042,0.004 -0.9652,0.9525 -1.172633,0.5715 -0.0635,-0.11853 0.131233,-0.52493 0.402167,-0.97367 -0.0042,0 0.0254,-0.0466 0.0254,-0.0466 0.0085,-0.32174 -1.075267,-0.2794 -1.075267,-0.2794 -0.02963,0 -0.0762,-0.0339 -0.09737,-0.0762 -0.0254,-0.0381 -0.02117,-0.072 0.0085,-0.072 h 1.430867 c 0.3556,-0.55457 0.7112,-1.04987 0.715433,-1.0541 z m -0.935567,1.40547 c 0.04233,-0.0677 0.08467,-0.13547 0.127,-0.2032 l -0.529166,-0.0212 c 0.127,0.0508 0.334433,0.13547 0.402166,0.22437 z"
         style="font-style:normal;font-variant:normal;font-weight:normal;font-stretch:normal;font-size:4.23333311px;font-family:'Photograph Signature';-inkscape-font-specification:'Photograph Signature, Normal';font-variant-ligatures:normal;font-variant-caps:normal;font-variant-numeric:normal;font-feature-settings:normal;text-align:start;writing-mode:lr-tb;text-anchor:start;fill:#ff5555;stroke:#000000;stroke-width:0.05291667;stroke-miterlimit:4;stroke-dasharray:none;stroke-opacity:1"
         id="path822"
         inkscape:connector-curvature="0" />
      <path
         d="m 14.933677,288.11673 c 0.0127,-0.0212 0.05503,-0.008 0.0889,0.0254 0.0381,0.0339 0.05503,0.0804 0.04233,0.1016 l -0.9271,1.50284 c 0.232833,-0.1778 0.4699,-0.28364 0.4953,-0.004 0.0042,0.0381 0.0085,0.31327 0.0085,0.31327 0.01693,0.0212 0.1524,-0.0127 0.524934,-0.35983 0.01693,-0.0169 0.04233,-0.055 0.0762,-0.0212 0.03387,0.0381 0.03387,0.0677 0.01693,0.0847 -0.4191,0.38946 -0.6223,0.48683 -0.719667,0.38523 -0.1016,-0.11007 -0.06773,-0.30903 -0.08043,-0.4572 -0.0127,-0.10583 -0.6858,0.65193 -0.690033,0.65617 -0.0127,0.0169 -0.0508,0.004 -0.08467,-0.0296 -0.0381,-0.0339 -0.05503,-0.0804 -0.04233,-0.1016 z"
         style="font-style:normal;font-variant:normal;font-weight:normal;font-stretch:normal;font-size:4.23333311px;font-family:'Photograph Signature';-inkscape-font-specification:'Photograph Signature, Normal';font-variant-ligatures:normal;font-variant-caps:normal;font-variant-numeric:normal;font-feature-settings:normal;text-align:start;writing-mode:lr-tb;text-anchor:start;fill:#ff5555;stroke:#000000;stroke-width:0.05291667;stroke-miterlimit:4;stroke-dasharray:none;stroke-opacity:1"
         id="path824"
         inkscape:connector-curvature="0" />
      <path
         d="m 15.502399,289.28513 c -0.02963,0 -0.0762,-0.0339 -0.09737,-0.072 -0.0254,-0.0423 -0.02117,-0.0762 0.0085,-0.0762 h 1.189567 c 0.02963,0 0.07197,0.0339 0.09737,0.0762 0.0254,0.0381 0.02117,0.072 -0.0127,0.072 z"
         style="font-style:normal;font-variant:normal;font-weight:normal;font-stretch:normal;font-size:4.23333311px;font-family:'Photograph Signature';-inkscape-font-specification:'Photograph Signature, Normal';font-variant-ligatures:normal;font-variant-caps:normal;font-variant-numeric:normal;font-feature-settings:normal;text-align:start;writing-mode:lr-tb;text-anchor:start;fill:#ff5555;stroke:#000000;stroke-width:0.05291667;stroke-miterlimit:4;stroke-dasharray:none;stroke-opacity:1"
         id="path826"
         inkscape:connector-curvature="0" />
      <path
         d="m 17.493654,289.36133 c 0.02117,-0.0169 0.0635,0 0.09737,0.0381 0.03387,0.0381 0.04657,0.0804 0.0254,0.0974 -0.09313,0.0804 -0.245533,0.26247 -0.338667,0.44027 -0.05927,0.11853 -0.05503,0.18626 -0.0127,0.20743 0.173567,0.0254 0.643467,-0.4318 0.643467,-0.43603 0.01693,-0.0169 0.04657,-0.0508 0.08043,-0.0127 0.0381,0.0381 0.02117,0.0508 0.0042,0.0677 -0.0042,0 -0.706967,0.762 -0.889,0.4445 -0.05927,-0.10583 -0.02963,-0.24977 0.04233,-0.3937 0.09313,-0.18203 0.249767,-0.37253 0.347133,-0.45297 z m 0.262467,-0.12276 c -0.01693,0.0212 -0.05927,0.004 -0.09313,-0.0296 -0.03387,-0.0381 -0.0508,-0.0804 -0.03387,-0.1016 l 0.237067,-0.27093 c 0.01693,-0.0212 0.05503,-0.004 0.09313,0.0296 0.03387,0.0381 0.04657,0.0804 0.03387,0.1016 z"
         style="font-style:normal;font-variant:normal;font-weight:normal;font-stretch:normal;font-size:4.23333311px;font-family:'Photograph Signature';-inkscape-font-specification:'Photograph Signature, Normal';font-variant-ligatures:normal;font-variant-caps:normal;font-variant-numeric:normal;font-feature-settings:normal;text-align:start;writing-mode:lr-tb;text-anchor:start;fill:#ff5555;stroke:#000000;stroke-width:0.05291667;stroke-miterlimit:4;stroke-dasharray:none;stroke-opacity:1"
         id="path828"
         inkscape:connector-curvature="0" />
      <path
         d="m 18.040018,289.45447 c 0.0127,-0.0212 0.05503,-0.0127 0.0889,0.0212 0.0381,0.0339 0.05503,0.0804 0.04233,0.1016 l -0.105834,0.1905 c 0.2286,-0.1905 0.478367,-0.37676 0.5715,-0.35136 h 0.0085 c 0.127,0.0381 0.148166,0.11853 0.118533,0.22436 -0.0127,0.0466 -0.04233,0.1016 -0.07197,0.1651 -0.05503,0.11007 -0.118533,0.23284 -0.118533,0.23284 0.135467,0.0889 0.592667,-0.31327 0.5969,-0.31327 0.0127,-0.0169 0.05927,-0.072 0.09313,-0.0339 0.0381,0.0339 0.0127,0.0423 -0.0042,0.0635 0,0 -0.461433,0.5461 -0.681567,0.40217 -0.190499,-0.12277 -0.09737,-0.30903 -0.01693,-0.47413 0.01693,-0.0339 0.03387,-0.0677 0.04657,-0.1016 -0.2413,0.127 -0.804333,0.66463 -0.821267,0.68156 -0.0127,0.0169 -0.0508,0.004 -0.08467,-0.0254 -0.03387,-0.0381 -0.05503,-0.0804 -0.04233,-0.1016 z"
         style="font-style:normal;font-variant:normal;font-weight:normal;font-stretch:normal;font-size:4.23333311px;font-family:'Photograph Signature';-inkscape-font-specification:'Photograph Signature, Normal';font-variant-ligatures:normal;font-variant-caps:normal;font-variant-numeric:normal;font-feature-settings:normal;text-align:start;writing-mode:lr-tb;text-anchor:start;fill:#ff5555;stroke:#000000;stroke-width:0.05291667;stroke-miterlimit:4;stroke-dasharray:none;stroke-opacity:1"
         id="path830"
         inkscape:connector-curvature="0" />
      <path
         d="m 21.400558,290.5255 c 0.03387,0.004 0.0762,0.0381 0.09737,0.0804 0.02117,0.0381 0.01693,0.0677 -0.01693,0.0677 -0.897467,-0.0762 -1.557867,-0.0593 -2.036233,0.008 -0.283634,0.47837 -0.601134,0.9398 -0.745067,0.9398 -0.194733,-0.004 -0.364067,-0.11006 -0.448733,-0.25823 -0.04657,-0.0847 -0.0635,-0.18203 -0.03387,-0.27517 0.02963,-0.0847 0.09313,-0.16933 0.207433,-0.24976 0.173567,-0.12277 0.461434,-0.23284 0.9017,-0.30057 0.09313,-0.15663 0.2413,-0.42757 0.321734,-0.5715 -0.131234,0.13547 -0.402167,0.26247 -0.4953,0.2413 -0.1524,-0.0339 -0.182034,-0.10583 -0.156634,-0.23707 0.05503,-0.2921 0.516467,-0.67733 0.7874,-0.3429 0.09313,-0.11006 0.156634,-0.19473 0.156634,-0.19473 0.0127,-0.0212 0.0508,-0.008 0.08467,0.0212 0.0381,0.0339 0.05503,0.0804 0.04657,0.1016 l -0.04657,0.0804 -0.0042,0.004 c 0,0.004 -0.2159,0.4191 -0.474133,0.87207 0.461433,-0.0508 1.071033,-0.055 1.8542,0.0127 z m -2.180167,0.19473 c -0.3175,0.0677 -0.537633,0.15664 -0.677333,0.25824 -0.105834,0.072 -0.1651,0.1524 -0.1905,0.22436 -0.02117,0.0677 -0.0127,0.12277 0.0085,0.1651 0.0381,0.0593 0.131234,0.1016 0.249767,0.10584 0.1143,0 0.364067,-0.34714 0.6096,-0.75354 z M 19.724158,289.7 c -0.1905,-0.24977 -0.7493,0.4064 -0.537634,0.4191 0.1143,0.008 0.4318,-0.19897 0.537634,-0.4191 z"
         style="font-style:normal;font-variant:normal;font-weight:normal;font-stretch:normal;font-size:4.23333311px;font-family:'Photograph Signature';-inkscape-font-specification:'Photograph Signature, Normal';font-variant-ligatures:normal;font-variant-caps:normal;font-variant-numeric:normal;font-feature-settings:normal;text-align:start;writing-mode:lr-tb;text-anchor:start;fill:#ff5555;stroke:#000000;stroke-width:0.05291667;stroke-miterlimit:4;stroke-dasharray:none;stroke-opacity:1"
         id="path832"
         inkscape:connector-curvature="0" />
      <path
         d="m 20.257358,289.83547 c -0.01693,0.0169 -0.06773,0.0423 -0.1016,0.008 -0.03387,-0.0381 0.05503,-0.1143 0.07197,-0.13123 l 0.3175,-0.38523 c 0.05503,-0.0593 0.09737,-0.0931 0.09737,-0.0931 0.01693,-0.0169 0.05927,0 0.0889,0.0381 0.03387,0.0339 0.0508,0.0804 0.03387,0.0974 l -0.1016,0.0974 c -0.0889,0.1016 -0.207433,0.28363 -0.160866,0.47836 0.0254,0.12277 0.0127,0.22014 -0.02117,0.2921 -0.02117,0.0381 -0.0508,0.0677 -0.08043,0.0931 -0.02963,0.0212 -0.0635,0.0381 -0.09737,0.0466 -0.05927,0.0127 -0.118533,0.004 -0.1651,-0.0212 -0.2413,-0.12277 -0.110067,-0.35984 -0.110067,-0.36407 0.0127,-0.0212 0.0508,-0.0127 0.0889,0.0212 0.0381,0.0339 0.05503,0.0804 0.04657,0.1016 0,0.004 -0.05927,0.11006 -0.0508,0.1143 0.01693,0.008 0.0508,0.008 0.08467,0 0.02963,-0.004 0.05927,-0.0169 0.08467,-0.0381 0.0254,-0.0169 0.0508,-0.0466 0.0635,-0.0762 0.02963,-0.0593 0.04233,-0.13547 0.02117,-0.23284 0,-0.055 -0.0381,-0.0593 0.0635,-0.24553 z"
         style="font-style:normal;font-variant:normal;font-weight:normal;font-stretch:normal;font-size:4.23333311px;font-family:'Photograph Signature';-inkscape-font-specification:'Photograph Signature, Normal';font-variant-ligatures:normal;font-variant-caps:normal;font-variant-numeric:normal;font-feature-settings:normal;text-align:start;writing-mode:lr-tb;text-anchor:start;fill:#ff5555;stroke:#000000;stroke-width:0.05291667;stroke-miterlimit:4;stroke-dasharray:none;stroke-opacity:1"
         id="path834"
         inkscape:connector-curvature="0" />
    </g>
  </g>
</svg>
